          <svg
            viewBox="0 0 86 98"
            fill="none"
            xmlns="http://www.w3.org/2000/svg"
          >
            <path
              d="M41.6004 96.4572L41.6022 96.458C42.0689 96.6583 42.4781 96.7255 42.9328 96.7255C43.3875 96.7255 43.7967 96.6583 44.2634 96.458L44.2653 96.4572C45.1188 96.0874 55.3384 91.6212 65.353 83.3294C75.3571 75.0463 85.2547 62.862 85.2547 47.0517V9.47525C85.2547 7.61205 83.7835 6.14087 81.9203 6.14087C80.6642 6.14087 79.685 5.16146 79.685 3.90561C79.685 2.04241 78.2139 0.571235 76.3507 0.571235H9.51498C7.65179 0.571235 6.18061 2.04241 6.18061 3.90561C6.18061 5.16146 5.20147 6.14087 3.94534 6.14087C2.08215 6.14087 0.610968 7.61205 0.610968 9.47525V47.0517C0.610968 62.862 10.5086 75.0463 20.5126 83.3294C30.5272 91.6212 40.7468 96.0874 41.6004 96.4572ZM44.0044 82.8844L44.0044 82.8844L43.9971 82.8885C43.7037 83.056 43.2999 83.1504 42.9328 83.1504C42.5658 83.1504 42.1621 83.0561 41.8685 82.8885L41.8685 82.8884L41.8612 82.8844C37.4822 80.473 30.208 75.9766 24.0357 69.8318C17.8564 63.6802 12.8494 55.9458 12.8494 47.0517V15.0449C12.8494 13.7887 13.8284 12.8096 15.0846 12.8096H70.781C72.0372 12.8096 73.0163 13.7887 73.0163 15.0449V47.0517C73.0163 55.9458 68.0093 63.6802 61.83 69.8318C55.6576 75.9766 48.3834 80.473 44.0044 82.8844ZM41.3526 50.4144L41.3525 50.4143L35.7829 44.8447C34.9098 43.9715 34.9098 42.5571 35.7829 41.6839C36.656 40.8108 38.0705 40.8108 38.9436 41.6839L42.5442 45.2847L42.9328 45.6733L43.3214 45.2847L57.8363 30.7697L58.2026 30.4033L57.8585 30.0161C54.189 25.8862 48.892 23.2211 42.9328 23.2211C31.8816 23.2211 22.8895 32.2132 22.8895 43.2644C22.8895 54.3156 31.8816 63.3077 42.9328 63.3077C53.9841 63.3077 62.9761 54.3156 62.9761 43.2644C62.9761 40.2602 62.2663 37.4398 61.0836 34.8886L60.7528 34.1748L60.1965 34.7311L44.5131 50.4143C44.0762 50.8512 43.5052 51.0693 42.9328 51.0693C42.3603 51.0693 41.7892 50.8511 41.3526 50.4144Z"
              fill="url(#paint0_linear_2376_567)"
              stroke="#053BB2"
              stroke-width="1.09911"
            />
            <path
              d="M11.2947 11.6223H75.2459L74.2559 67.0598L41.3894 86.5619L11.8887 67.0598L11.2947 11.6223Z"
              fill="url(#paint1_linear_2376_567)"
            />
            <path
              d="M81.9203 6.69043C80.3606 6.69043 79.1355 5.46492 79.1355 3.90561C79.1355 2.34592 77.9103 1.12079 76.3507 1.12079H9.51498C7.9553 1.12079 6.73016 2.34592 6.73016 3.90561C6.73016 5.46492 5.50503 6.69043 3.94534 6.69043C2.38566 6.69043 1.16052 7.91556 1.16052 9.47525V47.0517C1.16052 78.1858 40.148 95.2289 41.8189 95.953C42.2088 96.1203 42.5429 96.176 42.9328 96.176C43.3227 96.176 43.6569 96.1203 44.0467 95.953C45.7176 95.2289 84.7051 78.1858 84.7051 47.0517V9.47525C84.7051 7.91556 83.48 6.69043 81.9203 6.69043ZM73.5658 47.0517C73.5658 65.2645 53.0696 78.5198 44.2695 83.3658C43.8797 83.5884 43.3786 83.7 42.9328 83.7C42.4871 83.7 41.9862 83.5884 41.5961 83.3658C32.7961 78.5198 12.2998 65.2645 12.2998 47.0517V15.0449C12.2998 13.4852 13.5249 12.2601 15.0846 12.2601H70.781C72.3407 12.2601 73.5658 13.4852 73.5658 15.0449V47.0517ZM44.9017 50.8029C44.3577 51.3469 43.6452 51.6189 42.9328 51.6189C42.2205 51.6189 41.5077 51.3469 40.964 50.8029L35.3943 45.2333C34.3066 44.1455 34.3066 42.3831 35.3943 41.2953C36.4821 40.2076 38.2445 40.2076 39.3322 41.2953L42.9328 44.8961L57.4477 30.3811C53.8742 26.3592 48.7228 23.7707 42.9328 23.7707C32.1851 23.7707 23.4391 32.5167 23.4391 43.2644C23.4391 54.0121 32.1851 62.7581 42.9328 62.7581C53.6805 62.7581 62.4266 54.0121 62.4266 43.2644C62.4266 40.3483 61.7378 37.6064 60.585 35.1197L44.9017 50.8029Z"
              fill="url(#paint2_linear_2376_567)"
            />
            <defs>
              <linearGradient
                id="paint0_linear_2376_567"
                x1="42.9328"
                y1="96.176"
                x2="42.9328"
                y2="1.12079"
                gradientUnits="userSpaceOnUse"
              >
                <stop stop-color="#5558FF" />
                <stop offset="1" stop-color="#00C0FF" />
              </linearGradient>
              <linearGradient
                id="paint1_linear_2376_567"
                x1="40.0086"
                y1="86.5619"
                x2="40.0086"
                y2="12.5426"
                gradientUnits="userSpaceOnUse"
              >
                <stop stop-color="#ADDCFF" />
                <stop offset="0.5028" stop-color="#EAF6FF" />
                <stop offset="1" stop-color="#EAF6FF" />
              </linearGradient>
              <linearGradient
                id="paint2_linear_2376_567"
                x1="42.9328"
                y1="96.176"
                x2="42.9328"
                y2="1.12079"
                gradientUnits="userSpaceOnUse"
              >
                <stop stop-color="#5558FF" />
                <stop offset="1" stop-color="#00C0FF" />
              </linearGradient>
            </defs>
          </svg>