<svg width="34" height="37" viewBox="0 0 34 37" fill="none" xmlns="http://www.w3.org/2000/svg">
  <path
    d="M0.6875 7.31727C0.6875 4.00356 3.29639 1.31726 6.51462 1.31726H33.9995V35.6989H6.51462C3.29639 35.6989 0.6875 33.0126 0.6875 29.6989V7.31727Z"
    fill="url(#paint0_linear_50_8088)" />
  <path fill-rule="evenodd" clip-rule="evenodd"
    d="M34 0.317261V36.6989H6.55642C2.93541 36.6989 0 33.5649 0 29.6989V7.31727C0 3.45127 2.93541 0.317261 6.55642 0.317261H34ZM6.55642 1.31726C3.4527 1.31726 0.936632 4.00356 0.936632 7.31727V29.6989C0.936632 33.0126 3.4527 35.6989 6.55642 35.6989H34V1.31726H6.55642Z"
    fill="#1E499E" />
  <path
    d="M18.1109 7.68042C21.3269 7.68042 24.1882 9.11823 26.173 11.3521C27.1271 12.3767 27.6144 13.4236 27.9157 13.9842C28.556 15.3654 28.9385 16.8884 28.9385 18.5081C28.9385 24.4778 24.0806 29.3358 18.1109 29.3358C12.1411 29.3358 7.2832 24.4778 7.2832 18.5081C7.2832 12.5383 12.1411 7.68042 18.1109 7.68042Z"
    fill="url(#paint1_linear_50_8088)" />
  <path
    d="M19.2045 22.6953C18.9023 22.9974 18.5065 23.1485 18.1109 23.1485C17.7152 23.1485 17.3193 22.9974 17.0173 22.6953L13.9237 19.6017C13.3195 18.9975 13.3195 18.0186 13.9237 17.4144C14.5278 16.8102 15.5068 16.8102 16.1109 17.4144L18.1109 19.4144L26.173 11.3521C24.1882 9.11823 21.3269 7.68042 18.1109 7.68042C12.1411 7.68042 7.2832 12.5383 7.2832 18.5081C7.2832 24.4778 12.1411 29.3358 18.1109 29.3358C24.0806 29.3358 28.9385 24.4778 28.9385 18.5081C28.9385 16.8884 28.556 15.3654 27.9157 13.9842L19.2045 22.6953Z"
    fill="url(#paint2_linear_50_8088)" />
  <defs>
    <linearGradient id="paint0_linear_50_8088" x1="15.6445" y1="35.6989" x2="15.6445" y2="1.73952"
      gradientUnits="userSpaceOnUse">
      <stop stop-color="#ADDCFF" />
      <stop offset="0.5028" stop-color="#EAF6FF" />
      <stop offset="1" stop-color="#EAF6FF" />
    </linearGradient>
    <linearGradient id="paint1_linear_50_8088" x1="27.2537" y1="12.6573" x2="17.0855" y2="22.6809"
      gradientUnits="userSpaceOnUse">
      <stop offset="0.0245118" stop-color="white" stop-opacity="0" />
      <stop offset="0.233648" stop-color="white" />
      <stop offset="1" stop-color="white" />
    </linearGradient>
    <linearGradient id="paint2_linear_50_8088" x1="18.1109" y1="29.3358" x2="18.1109" y2="7.68042"
      gradientUnits="userSpaceOnUse">
      <stop stop-color="#5558FF" />
      <stop offset="1" stop-color="#00C0FF" />
    </linearGradient>
  </defs>
</svg>
